<?xml version="1.0" encoding="iso-8859-1"?>
<!-- Uploaded to: SVG Repo, www.svgrepo.com, Generator: SVG Repo Mixer Tools -->
<svg fill="#000000" height="800px" width="800px" version="1.1" id="Layer_1" xmlns="http://www.w3.org/2000/svg" xmlns:xlink="http://www.w3.org/1999/xlink" 
	 viewBox="0 0 512.001 512.001" xml:space="preserve">
<g>
	<g>
		<g>
			<path d="M380.996,156.174c12.913,0,23.419-10.505,23.419-23.419s-10.505-23.421-23.419-23.421s-23.422,10.506-23.422,23.421
				C357.575,145.669,368.081,156.174,380.996,156.174z M380.996,125.503c3.998,0,7.251,3.254,7.251,7.253
				c0,3.998-3.253,7.251-7.251,7.251c-3.999,0-7.253-3.253-7.253-7.251C373.743,128.756,376.997,125.503,380.996,125.503z"/>
			<path d="M143.94,156.176c12.913,0,23.419-10.505,23.419-23.419c0-12.915-10.505-23.422-23.419-23.422
				s-23.421,10.506-23.421,23.422C120.519,145.669,131.025,156.176,143.94,156.176z M143.94,125.502
				c3.998,0,7.251,3.254,7.251,7.253c0,3.998-3.253,7.251-7.251,7.251c-3.999,0-7.253-3.253-7.253-7.251
				C136.687,128.756,139.941,125.502,143.94,125.502z"/>
			<path d="M470.676,399.895h-39.61c0.371-1.56,0.587-3.179,0.587-4.851v-25.754c0-11.589-9.429-21.019-21.019-21.019h-56.585
				c-11.589,0-21.019,9.429-21.019,21.019v25.754c0,1.672,0.217,3.291,0.587,4.851h-23.093c0.371-1.56,0.587-3.179,0.587-4.851
				v-25.754c0-11.589-9.429-21.019-21.019-21.019h-56.585c-11.589,0-21.019,9.429-21.019,21.019v25.754
				c0,1.672,0.217,3.291,0.587,4.851h-23.091c0.371-1.56,0.587-3.179,0.587-4.851v-25.754c0-11.589-9.429-21.019-21.019-21.019
				h-56.587c-11.589,0-21.019,9.429-21.019,21.019v25.754c0,1.672,0.217,3.291,0.587,4.851H41.326
				c-22.406,0-40.635,18.228-40.635,40.633v0.499c0,22.405,18.229,40.633,40.635,40.633h5.235l14.921,26.25
				c1.437,2.529,4.121,4.09,7.029,4.09h386.581c2.907,0,5.592-1.561,7.029-4.09l15.239-26.809
				c19.234-3.199,33.948-19.946,33.948-40.074v-0.499C511.309,418.123,493.081,399.895,470.676,399.895z M349.199,369.291
				c0-2.674,2.176-4.851,4.851-4.851h56.585c2.674,0,4.851,2.176,4.851,4.851v25.754c0,2.674-2.176,4.851-4.851,4.851h-56.585
				c-2.675,0-4.851-2.175-4.851-4.851V369.291z M228.658,369.291c0-2.674,2.176-4.851,4.851-4.851h56.585
				c2.674,0,4.851,2.176,4.851,4.851v25.754c0,2.674-2.176,4.851-4.851,4.851h-56.585c-2.675,0-4.851-2.175-4.851-4.851V369.291z
				 M108.118,369.291c0-2.674,2.176-4.851,4.85-4.851h56.587c2.674,0,4.851,2.176,4.851,4.851v25.754
				c0,2.674-2.176,4.851-4.851,4.851h-56.587c-2.675,0-4.85-2.175-4.85-4.851V369.291z M495.141,441.027
				c0,13.491-10.975,24.465-24.465,24.465h-42.285c-4.466,0-8.084,3.619-8.084,8.084s3.618,8.084,8.084,8.084h30.053l-8.055,14.17
				H73.215l-8.055-14.17h336.286c4.466,0,8.084-3.618,8.084-8.084s-3.618-8.084-8.084-8.084H41.326
				c-13.492,0-24.467-10.975-24.467-24.465v-0.499c0-13.491,10.976-24.465,24.467-24.465h71.642h56.587h63.953h56.585h63.956h56.585
				h60.042c13.491,0,24.465,10.975,24.465,24.465V441.027z"/>
			<path d="M57.461,432.693H43.988c-4.466,0-8.084,3.618-8.084,8.084c0,4.466,3.618,8.084,8.084,8.084h13.474
				c4.466,0,8.084-3.618,8.084-8.084C65.545,436.312,61.926,432.693,57.461,432.693z"/>
			<path d="M376.228,432.693h-26.564c-4.466,0-8.084,3.618-8.084,8.084c0,4.466,3.618,8.084,8.084,8.084h26.564
				c4.466,0,8.084-3.618,8.084-8.084C384.312,436.312,380.694,432.693,376.228,432.693z"/>
			<path d="M429.356,432.693h-26.565c-4.466,0-8.084,3.618-8.084,8.084c0,4.466,3.618,8.084,8.084,8.084h26.565
				c4.466,0,8.084-3.618,8.084-8.084C437.44,436.312,433.822,432.693,429.356,432.693z"/>
			<path d="M269.973,432.693h-26.565c-4.466,0-8.084,3.618-8.084,8.084c0,4.466,3.618,8.084,8.084,8.084h26.565
				c4.466,0,8.084-3.618,8.084-8.084C278.057,436.312,274.437,432.693,269.973,432.693z"/>
			<path d="M110.589,432.693H84.025c-4.466,0-8.084,3.618-8.084,8.084c0,4.466,3.618,8.084,8.084,8.084h26.565
				c4.466,0,8.084-3.618,8.084-8.084C118.674,436.312,115.054,432.693,110.589,432.693z"/>
			<path d="M323.101,432.693h-26.565c-4.466,0-8.084,3.618-8.084,8.084c0,4.466,3.618,8.084,8.084,8.084h26.565
				c4.466,0,8.084-3.618,8.084-8.084C331.185,436.312,327.567,432.693,323.101,432.693z"/>
			<path d="M163.717,432.693h-26.565c-4.466,0-8.084,3.618-8.084,8.084c0,4.466,3.618,8.084,8.084,8.084h26.565
				c4.466,0,8.084-3.618,8.084-8.084C171.802,436.312,168.182,432.693,163.717,432.693z"/>
			<path d="M216.845,432.693H190.28c-4.466,0-8.084,3.618-8.084,8.084c0,4.466,3.618,8.084,8.084,8.084h26.565
				c4.466,0,8.084-3.618,8.084-8.084C224.929,436.312,221.309,432.693,216.845,432.693z"/>
			<path d="M469.394,432.693h-13.474c-4.466,0-8.084,3.618-8.084,8.084c0,4.466,3.618,8.084,8.084,8.084h13.474
				c4.466,0,8.084-3.618,8.084-8.084C477.478,436.312,473.859,432.693,469.394,432.693z"/>
			<path d="M23.369,46.736h95.528v43.163c-14.71,8.63-24.615,24.603-24.615,42.855c0,27.381,22.276,49.656,49.656,49.656
				c18.252,0,34.225-9.905,42.855-24.615h87.804c4.466,0,8.084-3.618,8.084-8.084s-3.618-8.084-8.084-8.084h-81.791
				c0.052-0.287,0.089-0.576,0.136-0.863c0.042-0.26,0.085-0.52,0.123-0.781c0.079-0.536,0.144-1.074,0.206-1.612
				c0.029-0.262,0.063-0.523,0.088-0.786c0.055-0.567,0.095-1.136,0.13-1.706c0.015-0.236,0.036-0.47,0.047-0.706
				c0.039-0.804,0.061-1.609,0.061-2.42c0-0.81-0.023-1.617-0.061-2.421c-0.011-0.235-0.032-0.467-0.046-0.701
				c-0.036-0.572-0.076-1.145-0.13-1.714c-0.025-0.259-0.057-0.516-0.086-0.774c-0.061-0.544-0.128-1.088-0.208-1.629
				c-0.038-0.254-0.079-0.508-0.12-0.761c-0.047-0.292-0.086-0.586-0.138-0.877h139.324c-0.053,0.291-0.091,0.584-0.138,0.876
				c-0.041,0.253-0.083,0.507-0.12,0.761c-0.08,0.543-0.147,1.088-0.208,1.634c-0.029,0.255-0.061,0.51-0.086,0.766
				c-0.055,0.571-0.096,1.146-0.131,1.72c-0.014,0.233-0.036,0.462-0.046,0.695c-0.039,0.804-0.061,1.611-0.061,2.421
				c0,0.809,0.023,1.616,0.061,2.42c0.012,0.236,0.032,0.469,0.047,0.704c0.036,0.571,0.076,1.141,0.13,1.71
				c0.026,0.262,0.058,0.522,0.087,0.781c0.06,0.539,0.127,1.078,0.206,1.614c0.039,0.262,0.081,0.523,0.124,0.784
				c0.046,0.287,0.084,0.576,0.136,0.861h-30.259c-4.466,0-8.084,3.618-8.084,8.084s3.618,8.084,8.084,8.084h36.271
				c4.313,7.351,10.459,13.497,17.811,17.81v29.568c-9.594,1.943-16.84,10.44-16.84,20.599v29.366v26.947
				c0,11.589,9.429,21.019,21.019,21.019h12.781v25.067c0,4.466,3.618,8.084,8.084,8.084c4.466,0,8.084-3.618,8.084-8.084v-25.067
				h12.778c11.589,0,21.019-9.429,21.019-21.019v-26.947v-29.366c0-10.159-7.246-18.655-16.84-20.599v-29.566
				c14.71-8.63,24.615-24.602,24.615-42.854c0-27.382-22.276-49.658-49.656-49.658c-18.252,0-34.224,9.905-42.855,24.615H186.793
				c-4.313-7.351-10.459-13.497-17.81-17.81V46.736h319.649c12.885,0,23.369-10.484,23.369-23.369
				c0-12.884-10.484-23.367-23.369-23.367H381.46c-4.466,0-8.084,3.618-8.084,8.084s3.618,8.084,8.084,8.084h107.172
				c3.971,0,7.2,3.229,7.2,7.198c0,3.971-3.229,7.2-7.2,7.2H160.898H126.98H23.369c-3.971,0-7.2-3.229-7.2-7.2
				c0-3.969,3.229-7.198,7.2-7.198h329.483c4.466,0,8.084-3.618,8.084-8.084s-3.618-8.084-8.084-8.084H23.369
				C10.484,0.002,0,10.485,0,23.369C0,36.254,10.484,46.736,23.369,46.736z M406.71,282.087c0,2.674-2.176,4.851-4.851,4.851
				h-41.728c-2.674,0-4.85-2.176-4.85-4.851v-18.863h51.429V282.087z M406.709,225.774v21.282H355.28v-21.282
				c0-2.674,2.176-4.851,4.85-4.851h3.905h33.918h3.905C404.533,220.923,406.709,223.1,406.709,225.774z M372.12,204.755V181.62
				c0.287,0.052,0.578,0.089,0.867,0.137c0.26,0.042,0.521,0.085,0.783,0.123c0.523,0.077,1.048,0.141,1.574,0.201
				c0.282,0.032,0.565,0.067,0.848,0.095c0.516,0.05,1.036,0.085,1.554,0.119c0.289,0.018,0.576,0.044,0.866,0.057
				c0.66,0.031,1.319,0.045,1.98,0.051c0.136,0.001,0.269,0.011,0.405,0.011c0.144,0,0.287-0.01,0.43-0.011
				c0.65-0.005,1.3-0.019,1.949-0.05c0.3-0.014,0.596-0.04,0.895-0.059c0.508-0.033,1.015-0.068,1.521-0.115
				c0.294-0.028,0.586-0.065,0.878-0.098c0.515-0.058,1.028-0.122,1.54-0.196c0.272-0.04,0.541-0.084,0.811-0.128
				c0.283-0.047,0.568-0.084,0.849-0.135v23.135H372.12z M347.552,131.019c0.016-0.309,0.046-0.614,0.07-0.921
				c0.021-0.264,0.035-0.528,0.061-0.791c0.036-0.35,0.086-0.696,0.134-1.044c0.029-0.217,0.052-0.434,0.085-0.65
				c0.053-0.341,0.119-0.677,0.181-1.014c0.042-0.222,0.078-0.446,0.124-0.667c0.065-0.312,0.141-0.619,0.214-0.927
				c0.059-0.248,0.114-0.497,0.179-0.744c0.072-0.275,0.154-0.545,0.233-0.818c0.082-0.281,0.162-0.563,0.251-0.842
				c0.077-0.238,0.16-0.474,0.241-0.71c0.107-0.309,0.214-0.619,0.33-0.926c0.081-0.216,0.167-0.428,0.253-0.64
				c0.127-0.317,0.258-0.634,0.396-0.949c5.175-11.824,16.981-20.11,30.692-20.11c18.465,0,33.488,15.024,33.488,33.49
				c0,13.701-8.275,25.501-20.086,30.681c-0.333,0.146-0.667,0.283-1.004,0.418c-0.195,0.079-0.39,0.157-0.589,0.233
				c-0.327,0.124-0.654,0.238-0.983,0.35c-0.219,0.074-0.435,0.152-0.656,0.222c-0.299,0.096-0.6,0.182-0.902,0.269
				c-0.253,0.073-0.504,0.149-0.76,0.217c-0.267,0.07-0.537,0.13-0.805,0.194c-0.29,0.068-0.578,0.14-0.87,0.202
				c-0.238,0.05-0.479,0.089-0.719,0.134c-0.321,0.059-0.641,0.123-0.966,0.174c-0.232,0.036-0.467,0.061-0.7,0.092
				c-0.331,0.044-0.661,0.093-0.995,0.127c-0.28,0.028-0.562,0.044-0.842,0.066c-0.291,0.023-0.58,0.052-0.873,0.067
				c-0.577,0.029-1.157,0.045-1.738,0.045c-0.581,0-1.161-0.015-1.738-0.045c-0.304-0.015-0.604-0.045-0.904-0.069
				c-0.269-0.022-0.54-0.036-0.81-0.064c-0.348-0.036-0.692-0.085-1.037-0.133c-0.219-0.029-0.439-0.053-0.656-0.086
				c-0.34-0.053-0.674-0.117-1.01-0.18c-0.224-0.042-0.45-0.079-0.673-0.125c-0.307-0.064-0.61-0.139-0.914-0.211
				c-0.253-0.06-0.508-0.116-0.76-0.183c-0.269-0.071-0.536-0.151-0.802-0.229c-0.287-0.083-0.573-0.165-0.857-0.255
				c-0.234-0.074-0.466-0.156-0.697-0.236c-0.315-0.109-0.628-0.218-0.941-0.335c-0.21-0.08-0.419-0.164-0.627-0.248
				c-0.322-0.129-0.643-0.262-0.963-0.401c-7.714-3.378-13.918-9.579-17.298-17.292c-0.143-0.328-0.279-0.659-0.413-0.99
				c-0.08-0.201-0.162-0.399-0.237-0.601c-0.122-0.321-0.234-0.646-0.346-0.97c-0.077-0.223-0.155-0.444-0.226-0.669
				c-0.094-0.294-0.179-0.591-0.264-0.886c-0.074-0.259-0.152-0.516-0.221-0.777c-0.069-0.261-0.127-0.524-0.19-0.786
				c-0.07-0.295-0.143-0.589-0.205-0.886c-0.05-0.236-0.088-0.473-0.132-0.71c-0.06-0.323-0.124-0.647-0.175-0.973
				c-0.036-0.23-0.06-0.46-0.091-0.691c-0.045-0.334-0.094-0.667-0.128-1.006c-0.028-0.274-0.043-0.55-0.065-0.826
				c-0.023-0.295-0.053-0.59-0.068-0.888c-0.029-0.577-0.045-1.157-0.045-1.738S347.522,131.595,347.552,131.019z M135.064,46.736
				h17.75v37.153c-0.277-0.051-0.557-0.086-0.835-0.133c-0.275-0.045-0.549-0.089-0.825-0.13c-0.527-0.077-1.055-0.142-1.586-0.202
				c-0.267-0.03-0.534-0.064-0.802-0.089c-0.565-0.055-1.131-0.094-1.699-0.129c-0.237-0.015-0.472-0.036-0.71-0.047
				c-0.804-0.039-1.61-0.061-2.42-0.061s-1.616,0.023-2.419,0.061c-0.239,0.012-0.475,0.033-0.714,0.047
				c-0.566,0.036-1.13,0.075-1.692,0.129c-0.273,0.027-0.543,0.06-0.814,0.092c-0.524,0.059-1.047,0.124-1.568,0.199
				c-0.282,0.041-0.564,0.087-0.845,0.134c-0.274,0.045-0.549,0.08-0.821,0.129V46.736z M130.549,102.068
				c0.328-0.143,0.659-0.279,0.99-0.412c0.195-0.079,0.39-0.157,0.587-0.232c0.333-0.126,0.669-0.244,1.006-0.359
				c0.209-0.071,0.416-0.146,0.626-0.212c0.315-0.101,0.632-0.192,0.949-0.282c0.238-0.068,0.474-0.14,0.715-0.204
				c0.286-0.075,0.575-0.14,0.862-0.208c0.271-0.064,0.54-0.131,0.814-0.189c0.263-0.055,0.528-0.099,0.791-0.147
				c0.299-0.055,0.595-0.113,0.896-0.161c0.258-0.04,0.518-0.068,0.777-0.102c0.307-0.04,0.612-0.085,0.922-0.117
				c0.299-0.03,0.598-0.047,0.898-0.07c0.273-0.021,0.544-0.049,0.819-0.063c0.577-0.029,1.157-0.045,1.739-0.045
				c0.582,0,1.161,0.015,1.739,0.045c0.281,0.014,0.558,0.043,0.838,0.064c0.293,0.023,0.587,0.039,0.88,0.069
				c0.318,0.033,0.632,0.079,0.946,0.121c0.25,0.033,0.501,0.06,0.751,0.099c0.31,0.048,0.617,0.109,0.924,0.166
				c0.254,0.046,0.51,0.088,0.762,0.141c0.284,0.059,0.563,0.129,0.844,0.195c0.277,0.066,0.554,0.127,0.83,0.201
				c0.251,0.066,0.498,0.141,0.747,0.212c0.305,0.088,0.611,0.176,0.914,0.273c0.222,0.071,0.441,0.149,0.662,0.224
				c0.323,0.111,0.647,0.223,0.968,0.345c0.21,0.079,0.417,0.164,0.625,0.247c0.318,0.127,0.635,0.259,0.951,0.396
				c7.746,3.389,13.969,9.623,17.343,17.377c0.115,0.264,0.224,0.53,0.332,0.797c0.102,0.254,0.206,0.509,0.303,0.765
				c0.102,0.273,0.197,0.548,0.293,0.822c0.092,0.265,0.185,0.528,0.27,0.797c0.082,0.258,0.155,0.516,0.231,0.776
				c0.084,0.29,0.171,0.579,0.248,0.872c0.061,0.234,0.113,0.471,0.17,0.706c0.077,0.319,0.155,0.638,0.222,0.96
				c0.044,0.214,0.08,0.43,0.12,0.646c0.065,0.344,0.131,0.686,0.185,1.033c0.033,0.216,0.056,0.434,0.085,0.651
				c0.046,0.347,0.097,0.692,0.133,1.042c0.027,0.267,0.042,0.537,0.063,0.805c0.024,0.303,0.054,0.604,0.069,0.908
				c0.029,0.577,0.045,1.157,0.045,1.738s-0.016,1.161-0.045,1.738c-0.015,0.299-0.045,0.593-0.068,0.889
				c-0.022,0.275-0.037,0.551-0.065,0.823c-0.036,0.342-0.084,0.679-0.129,1.018c-0.03,0.225-0.054,0.453-0.089,0.677
				c-0.052,0.336-0.117,0.669-0.18,1.002c-0.042,0.225-0.079,0.453-0.126,0.678c-0.065,0.312-0.141,0.619-0.215,0.927
				c-0.059,0.247-0.114,0.495-0.179,0.742c-0.073,0.28-0.157,0.557-0.238,0.835c-0.08,0.273-0.156,0.545-0.244,0.816
				c-0.081,0.254-0.169,0.506-0.257,0.757c-0.1,0.289-0.201,0.578-0.308,0.864c-0.092,0.244-0.19,0.484-0.287,0.725
				c-0.113,0.281-0.229,0.562-0.349,0.841c-5.163,11.848-16.983,20.154-30.712,20.154c-18.465,0-33.488-15.024-33.488-33.488
				C110.45,119.049,118.731,107.245,130.549,102.068z"/>
		</g>
	</g>
</g>
</svg>