<?xml version="1.0" encoding="iso-8859-1"?>
<!-- Uploaded to: SVG Repo, www.svgrepo.com, Generator: SVG Repo Mixer Tools -->
<svg fill="#000000" height="800px" width="800px" version="1.1" id="Layer_1" xmlns="http://www.w3.org/2000/svg" xmlns:xlink="http://www.w3.org/1999/xlink" 
	 viewBox="0 0 512 512" xml:space="preserve">
<g>
	<g>
		<path d="M485.192,270.476h-14.475V141.875h5.46c5.632,0,10.199-4.566,10.199-10.199V97.51c0-5.633-4.567-10.199-10.199-10.199
			h-72.518V50.059c0-5.633-4.567-10.199-10.199-10.199h-23.815v-29.66C369.645,4.566,365.077,0,359.445,0H152.555
			c-5.633,0-10.199,4.566-10.199,10.199v29.66H118.54c-5.633,0-10.199,4.566-10.199,10.199v37.253H35.824
			c-5.633,0-10.199,4.566-10.199,10.199v34.165c0,5.633,4.566,10.199,10.199,10.199h5.461v128.601H26.808
			c-5.633,0-10.199,4.566-10.199,10.199v221.126c0,5.633,4.566,10.199,10.199,10.199h458.385c5.632,0,10.199-4.566,10.199-10.199
			V280.675C495.392,275.042,490.824,270.476,485.192,270.476z M474.993,290.874v20.411h-39.866v-20.411H474.993z M403.659,270.476
			V141.875h46.66v128.601H403.659z M403.658,107.71h62.319v13.767h-62.319V107.71z M369.794,60.258h0.001h13.464v270.867
			c0,3.713-3.02,6.732-6.732,6.732s-6.733-3.02-6.733-6.732V60.258z M383.261,357.41v54.384c0,3.713-3.02,6.733-6.733,6.733
			s-6.732-3.02-6.732-6.733V357.41c2.153,0.552,4.409,0.846,6.732,0.846C378.851,358.256,381.106,357.961,383.261,357.41z
			 M376.528,438.925c14.96,0,27.131-12.171,27.131-27.131v-120.92h11.07v129.31c0,21.064-17.138,38.202-38.201,38.202
			c-21.064,0-38.202-17.138-38.202-38.202v-129.31h11.071v120.92C349.397,426.753,361.568,438.925,376.528,438.925z
			 M162.754,100.972h101.406c5.632,0,10.199-4.566,10.199-10.199c0-5.633-4.567-10.199-10.199-10.199H162.754V20.398h186.492
			v101.078H162.754V100.972z M221.141,164.184v-22.309h69.719v22.309H221.141z M264.781,184.582v38.442h-17.563v-38.442H264.781z
			 M162.603,141.875h38.14v32.508c0,5.633,4.566,10.199,10.199,10.199h15.879v48.641c0,5.633,4.566,10.199,10.199,10.199h37.961
			c5.632,0,10.199-4.566,10.199-10.199v-48.641h15.878c5.632,0,10.199-4.566,10.199-10.199v-32.508h38.14v128.601H162.603V141.875z
			 M317.927,290.874v20.411H194.072v-20.411H317.927z M128.739,60.258h0.001h13.464v270.867c0,3.713-3.02,6.732-6.732,6.732
			c-3.712,0-6.732-3.02-6.732-6.732V60.258z M142.205,357.41v54.384c0,3.713-3.02,6.733-6.732,6.733s-6.732-3.02-6.732-6.733V357.41
			c2.153,0.552,4.409,0.846,6.732,0.846S140.051,357.961,142.205,357.41z M135.473,438.925c14.96,0,27.131-12.171,27.131-27.131
			v-120.92h11.071v129.31c0,21.064-17.138,38.202-38.202,38.202s-38.202-17.138-38.202-38.202v-129.31h11.071v120.92
			C108.342,426.753,120.513,438.925,135.473,438.925z M61.682,270.476V141.875h46.66v128.601H61.682z M46.023,107.71h62.319v13.767
			H46.023V107.71z M37.007,290.874h39.866v20.411H37.007V290.874z M474.994,491.602h-0.001H37.007V331.683h39.866v88.501
			c0,32.312,26.287,58.601,58.601,58.601s58.601-26.287,58.601-58.601v-88.501h123.855v88.501c0,32.312,26.287,58.601,58.601,58.601
			c32.312,0,58.6-26.287,58.6-58.601v-88.501h39.866V491.602z"/>
	</g>
</g>
<g>
	<g>
		<path d="M308.016,80.574h-8.159c-5.632,0-10.199,4.566-10.199,10.199c0,5.633,4.567,10.199,10.199,10.199h8.159
			c5.632,0,10.199-4.566,10.199-10.199C318.215,85.14,313.648,80.574,308.016,80.574z"/>
	</g>
</g>
</svg>