<?xml version="1.0" encoding="iso-8859-1"?>
<!-- Uploaded to: SVG Repo, www.svgrepo.com, Generator: SVG Repo Mixer Tools -->
<svg fill="#000000" height="800px" width="800px" version="1.1" id="Layer_1" xmlns="http://www.w3.org/2000/svg" xmlns:xlink="http://www.w3.org/1999/xlink" 
	 viewBox="0 0 512 512" xml:space="preserve">
<g>
	<g>
		<path d="M501.801,365.902h-25.425v-28.478c0-5.632-4.566-10.199-10.199-10.199H238.188c-5.633,0-10.199,4.567-10.199,10.199
			v28.478h-38.636V262.128h19.317c5.633,0,10.199-4.567,10.199-10.199v-16.263h33.567c5.633,0,10.199-4.567,10.199-10.199v-13.211
			h49.853c5.633,0,10.199-4.567,10.199-10.199v-28.498c0-5.632-4.566-10.199-10.199-10.199h-49.853v-13.211
			c0-5.632-4.566-10.199-10.199-10.199H218.87v-16.264c0-5.632-4.566-10.199-10.199-10.199h-19.317V13.762
			c0-5.632-4.566-10.199-10.199-10.199H63.124c-5.633,0-10.199,4.567-10.199,10.199v99.724h-31.53
			c-5.633,0-10.199,4.567-10.199,10.199v72.264c0,3.43,1.725,6.631,4.59,8.518l37.139,24.458v136.977H10.199
			C4.566,365.902,0,370.47,0,376.102v122.136c0,5.632,4.566,10.199,10.199,10.199h491.602c5.633,0,10.199-4.567,10.199-10.199
			V376.102C512,370.47,507.434,365.902,501.801,365.902z M262.637,183.757h39.652v8.099h-39.652V183.757z M218.87,160.347h23.367
			v54.921H218.87V160.347z M248.387,347.624h207.591v18.279H248.387V347.624z M73.323,23.961h95.632v26.42H73.323V23.961z
			 M168.955,70.779v42.706h-22.349V70.779H168.955z M126.207,70.779v42.707h-10.136V70.779H126.207z M73.323,70.779h22.349v42.706
			H73.323V70.779z M31.594,190.455v-56.57h166.877v107.844H73.323v-18.298c0-3.43-1.725-6.632-4.59-8.518L31.594,190.455z
			 M168.955,262.128v103.775h-22.349V262.128H168.955z M126.207,262.128v103.775h-10.136V262.128H126.207z M95.673,262.128v103.775
			H73.323V262.128H95.673z M491.602,488.039H20.398V386.301h164.843v38.655c0,5.632,4.566,10.199,10.199,10.199h296.161V488.039z
			 M491.602,414.757H205.639v-28.456h285.962V414.757z"/>
	</g>
</g>
<g>
	<g>
		<path d="M219.868,457.505H44.805c-5.633,0-10.199,4.567-10.199,10.199s4.566,10.199,10.199,10.199h175.063
			c5.633,0,10.199-4.567,10.199-10.199S225.501,457.505,219.868,457.505z"/>
	</g>
</g>
<g>
	<g>
		<path d="M261.598,457.505h-8.142c-5.633,0-10.199,4.567-10.199,10.199s4.566,10.199,10.199,10.199h8.142
			c5.633,0,10.199-4.567,10.199-10.199S267.231,457.505,261.598,457.505z"/>
	</g>
</g>
</svg>