<?xml version="1.0" encoding="iso-8859-1"?>
<!-- Uploaded to: SVG Repo, www.svgrepo.com, Generator: SVG Repo Mixer Tools -->
<svg fill="#000000" height="800px" width="800px" version="1.1" id="Layer_1" xmlns="http://www.w3.org/2000/svg" xmlns:xlink="http://www.w3.org/1999/xlink" 
	 viewBox="0 0 512 512" xml:space="preserve">
<g transform="translate(1 1)">
	<g>
		<g>
			<path d="M125.293,173.775c-3.413-2.56-9.387-1.707-11.947,1.707s-1.707,9.387,1.707,11.947
				c35.84,27.307,77.653,42.667,126.293,46.933c4.267,0,8.533-3.413,8.533-7.68c0.853-5.12-2.56-9.387-7.68-9.387
				C196.973,213.882,157.72,199.375,125.293,173.775z"/>
			<path d="M90.049,215.549L60.44,259.962c-2.56,4.267-1.707,9.387,1.707,11.947c1.707,0.853,3.413,1.707,5.12,1.707
				c2.56,0,5.12-1.707,7.68-4.267l29.58-44.37c6.486,3.975,13.087,7.695,19.784,11.171L93.72,295.802
				c-2.56,3.413-0.853,8.533,3.413,11.093c1.707,0.853,2.56,0.853,4.267,0.853c3.413,0,5.973-1.707,6.827-4.267l30.84-60.138
				c6.761,3.082,13.611,5.908,20.531,8.504l-23.211,70.408c-1.707,5.12,0.853,9.387,5.12,11.093c0.853,0,1.707,0,2.56,0
				c3.413,0,6.827-2.56,8.533-5.12l23.319-70.733c5.84,1.843,11.727,3.498,17.646,5.006l-15.364,69.14
				c-0.853,4.267,2.56,9.387,6.827,10.24c0.853,0,0.853,0,1.707,0c4.267,0,7.68-2.56,8.533-6.827l15.268-68.705
				c6.012,1.198,12.049,2.244,18.11,3.104l-7.777,80.108c0,5.12,3.413,8.533,8.533,9.387c4.267,0,7.68-3.413,8.533-7.68l7.752-79.85
				c5.939,0.532,11.891,0.894,17.848,1.107v86.423c0,5.12,3.413,8.533,8.533,8.533c5.12,0,8.533-3.413,8.533-8.533v-86.247
				c6.194-0.094,12.383-0.337,18.556-0.771l15.578,71.657c0.853,4.267,4.267,6.827,8.533,6.827c0.853,0,0.853,0,1.707,0
				c5.12-0.853,7.68-5.973,6.827-10.24l-15.205-69.944c6.131-0.755,12.239-1.688,18.319-2.784l23.339,68.461
				c0.853,3.413,4.267,5.973,7.68,5.973c0.853,0,1.707,0,3.413-0.853c4.267-1.707,6.827-6.827,5.12-11.093l-22.507-66.021
				c5.884-1.385,11.735-2.921,17.542-4.633l31.419,61.267c1.707,2.56,4.267,4.267,7.68,4.267c1.707,0,2.56,0,3.413-0.853
				c4.267-1.707,5.973-6.827,3.413-11.093l-30.105-58.704c6.868-2.414,13.665-5.061,20.379-7.948l38.738,49.585
				c1.707,2.56,4.267,3.413,6.827,3.413c1.707,0,3.413-0.853,5.12-1.707c4.267-2.56,4.267-8.533,1.707-11.947l-36.488-46.705
				c6.644-3.3,13.193-6.844,19.634-10.629l46.721,42.827c1.707,1.707,4.267,2.56,5.973,2.56c2.56,0,4.267-0.853,5.973-3.413
				c2.56-3.413,2.56-8.533-0.853-11.947l-42.914-39.338c6.971-4.633,13.793-9.575,20.455-14.811l20.752,16.602
				c1.707,0.853,3.413,1.707,5.12,1.707c2.56,0,5.12-0.853,6.827-3.413c2.56-3.413,1.707-9.387-1.707-11.947l-17.605-14.084
				c5.724-5.027,11.319-10.276,16.752-15.782c3.413-3.413,3.413-8.533,0-11.947s-8.533-3.413-11.947,0
				c-43.935,43.935-97.886,71.92-154.575,83.955c-0.784,0.037-1.564,0.197-2.321,0.485c-43.346,8.858-88.226,8.399-131.417-1.388
				c-0.317-0.114-0.639-0.213-0.968-0.279c-0.226-0.045-0.455-0.072-0.684-0.094C151.056,235.429,99.985,208.46,57.88,166.949
				c-2.56-2.56-5.973-4.267-9.387-4.267c-10.24,0-32.427-4.267-32.427-25.6c0-5.12-3.413-8.533-8.533-8.533S-1,131.962-1,137.082
				c0,29.013,24.747,40.96,47.787,42.667c3.061,3.02,6.182,5.942,9.333,8.814l-29.813,37.266c-2.56,3.413-1.707,9.387,1.707,11.947
				c1.707,0.853,3.413,1.707,5.12,1.707c2.56,0,5.12-0.853,6.827-3.413l29.076-36.345C75.87,205.319,82.877,210.601,90.049,215.549z
				"/>
			<path d="M420.547,399.909c-11.093,0-20.48,9.387-20.48,20.48v5.12h-8.533v-8.533c0-5.12-3.413-8.533-8.533-8.533
				s-8.533,3.413-8.533,8.533v8.533h-8.533v-8.533c0-5.12-3.413-8.533-8.533-8.533s-8.533,3.413-8.533,8.533v8.533h-8.533v-17.067
				c0-5.12-3.413-8.533-8.533-8.533c-5.12,0-8.533,3.413-8.533,8.533v17.067h-8.533v-25.6c0-5.12-3.413-8.533-8.533-8.533
				s-8.533,3.413-8.533,8.533v25.6h-8.533v-34.133c0-5.12-3.413-8.533-8.533-8.533s-8.533,3.413-8.533,8.533v34.133h-8.533v-42.667
				c0-5.12-3.413-8.533-8.533-8.533s-8.533,3.413-8.533,8.533v42.667h-8.533v-42.667c0-5.12-3.413-8.533-8.533-8.533
				s-8.533,3.413-8.533,8.533v42.667h-8.533v-42.667c0-5.12-3.413-8.533-8.533-8.533c-5.12,0-8.533,3.413-8.533,8.533v42.667h-8.533
				v-42.667c0-5.12-3.413-8.533-8.533-8.533s-8.533,3.413-8.533,8.533v42.667h-8.533v-34.133c0-5.12-3.413-8.533-8.533-8.533
				c-5.12,0-8.533,3.413-8.533,8.533v34.133h-8.533v-25.6c0-5.12-3.413-8.533-8.533-8.533s-8.533,3.413-8.533,8.533v25.6h-8.533
				v-17.067c0-5.12-3.413-8.533-8.533-8.533s-8.533,3.413-8.533,8.533v17.067h-8.533v-8.533c0-5.12-3.413-8.533-8.533-8.533
				s-8.533,3.413-8.533,8.533v8.533c-5.12,0-8.533,3.413-8.533,8.533s3.413,8.533,8.533,8.533v8.533c0,5.12,3.413,8.533,8.533,8.533
				s8.533-3.413,8.533-8.533v-8.533h8.533v17.067c0,5.12,3.413,8.533,8.533,8.533s8.533-3.413,8.533-8.533v-17.067h8.533v25.6
				c0,5.12,3.413,8.533,8.533,8.533s8.533-3.413,8.533-8.533v-25.6h8.533v34.133c0,5.12,3.413,8.533,8.533,8.533
				c5.12,0,8.533-3.413,8.533-8.533v-34.133h8.533v42.667c0,5.12,3.413,8.533,8.533,8.533s8.533-3.413,8.533-8.533v-42.667h8.533
				v42.667c0,5.12,3.413,8.533,8.533,8.533c5.12,0,8.533-3.413,8.533-8.533v-42.667h8.533v42.667c0,5.12,3.413,8.533,8.533,8.533
				s8.533-3.413,8.533-8.533v-42.667h8.533v42.667c0,5.12,3.413,8.533,8.533,8.533s8.533-3.413,8.533-8.533v-42.667h8.533v34.133
				c0,5.12,3.413,8.533,8.533,8.533s8.533-3.413,8.533-8.533v-34.133h8.533v25.6c0,5.12,3.413,8.533,8.533,8.533
				s8.533-3.413,8.533-8.533v-25.6h8.533v17.067c0,5.12,3.413,8.533,8.533,8.533c5.12,0,8.533-3.413,8.533-8.533v-17.067h8.533
				v8.533c0,5.12,3.413,8.533,8.533,8.533s8.533-3.413,8.533-8.533v-8.533h8.533v8.533c0,5.12,3.413,8.533,8.533,8.533
				s8.533-3.413,8.533-8.533v-8.533h8.533v5.12c0,11.093,9.387,20.48,20.48,20.48H511v-68.267H420.547z M493.933,451.109h-73.387
				c-1.707,0-3.413-1.707-3.413-3.413v-27.307c0-1.707,1.707-3.413,3.413-3.413h73.387V451.109z"/>
			<path d="M93.72,75.642c1.707,0,3.413-0.853,5.973-1.707c46.08-35.84,135.68-55.467,194.56-27.307
				c4.267,1.707,9.387,0,11.093-4.267c1.707-4.267,0-9.387-4.267-11.093C234.52-0.305,138.947,21.882,88.6,60.282
				c-3.413,2.56-4.267,8.533-1.707,11.947C88.6,74.789,91.16,75.642,93.72,75.642z"/>
		</g>
	</g>
</g>
</svg>